<?xml version="1.0" encoding="utf-8"?>
<!-- Generator: Adobe Illustrator 27.0.0, SVG Export Plug-In . SVG Version: 6.00 Build 0)  -->
<svg version="1.1" id="Layer_1" xmlns="http://www.w3.org/2000/svg" xmlns:xlink="http://www.w3.org/1999/xlink" x="0px" y="0px"
  viewBox="0 0 256 256" style="enable-background:new 0 0 256 256;" xml:space="preserve">
  <style type="text/css">
	.st0{enable-background:new    ;}
	.st1{fill:#2E3192;}
</style>
  <g class="st0">
    <path class="st1" d="M21.8,217.3l2.9,2.9c0.2-0.1,0.4-0.2,0.6-0.4c0.5-0.5,0.5-1,0-1.5c-0.2-0.2-0.4-0.3-0.5-0.4
		c-0.4-0.2-0.6-0.4-0.7-0.5c-0.3-0.3-0.4-0.7-0.4-1.1s0.2-0.9,0.5-1.2c0.9-0.9,1.7-0.9,2.6,0c0.4,0.4,0.8,0.9,1.4,1.7
		c0.2,0.3,0.6,0.7,1.2,1.3c0.6,0.6,1.3,1.3,2.1,1.9c0.6,0.5,1.1,0.9,1.4,1.2c0.9,0.9,1,1.9,0.1,2.8c-0.8,0.8-1.5,0.8-2.2,0
		c-0.2-0.2-0.4-0.4-0.6-0.7c-0.1-0.1-0.2-0.3-0.4-0.5c-0.4-0.4-1-0.3-1.6,0.3c0,0-0.1,0.2-0.3,0.4l3.4,3.4c0.6,0.6,1,0.8,1.4,0.7
		c0.2-0.1,0.5-0.3,0.8-0.6l2.3-2.3c0.5-0.5,0.8-0.9,0.8-1.3c0.1-0.3-0.1-0.7-0.6-1.2c-0.2-0.2-0.7-0.6-1.2-1
		c-0.7-0.5-1.2-0.9-1.5-1.2c-0.5-0.5-0.7-1.1-0.8-1.7c0-0.7,0.2-1.2,0.7-1.7c1.1-1.1,2.4-0.9,3.9,0.6c0.4,0.4,0.7,0.8,1.1,1.2
		c0.5,0.7,1.1,1.2,1.6,1.8c0.3,0.3,0.7,0.7,1.4,1.2c0.6,0.5,1.1,0.9,1.4,1.2c0.5,0.5,0.7,1,0.7,1.4c-0.1,0.4-0.4,0.9-1,1.5
		c-0.3,0.3-0.6,0.6-0.9,0.9c-2,1.7-3.7,3.4-5.3,4.9c-0.5,0.5-1.2,1.3-2.2,2.4c-1,1.1-1.7,1.9-2.2,2.4c-0.5,0.5-1.2,0.8-1.9,0.8
		c-0.7,0-1.4-0.4-2.1-1c-0.5-0.5-0.8-1-0.9-1.6c-0.1-0.6,0-1,0.3-1.3c0,0,0.1-0.1,0.1-0.1c0.1-0.1,0.1-0.1,0.2-0.2
		c0,0,0.1-0.1,0.2-0.2c0.3-0.3,0.2-0.6-0.1-0.9L17.2,221c-0.4-0.4-0.7-0.4-0.9-0.1c0,0-0.1,0.1-0.1,0.1c0,0.1,0,0.1-0.1,0.1
		c-0.1,0.2-0.2,0.3-0.3,0.4c-0.3,0.3-0.7,0.4-1.3,0.3c-0.6-0.1-1.1-0.4-1.6-0.9c-0.6-0.6-1-1.3-1-2.1c-0.1-0.8,0.2-1.4,0.7-1.9
		c0.4-0.4,1.2-1.1,2.4-2.2c0.9-0.8,1.8-1.7,2.8-2.6c0.6-0.6,1.5-1.6,2.7-2.9c1.2-1.3,2-2.2,2.7-2.9c1-1,1.9-1.1,2.8-0.2
		c0.2,0.2,0.6,0.7,1.3,1.4c0.4,0.5,1.2,1.3,2.4,2.5l0.6,0.6l1.4,1.2c1.2,1.2,1.2,2.3,0,3.5c-1.1,1.1-2.1,1.1-3.1,0.1
		c-0.3-0.3-0.7-0.7-1.1-1.3c-0.5-0.6-0.8-1-1.1-1.3c-0.5-0.5-0.9-0.7-1.2-0.7c-0.3,0-0.7,0.3-1.1,0.7l-2,2c-0.6,0.6-0.9,1-0.9,1.3
		C21,216.3,21.3,216.7,21.8,217.3z" />
    <path class="st1" d="M44.9,193.3l8.7,8.7c2.1,2.1,3.1,4.2,3.2,6.4c0,2.2-1,4.3-3,6.3c-1.9,1.9-3.9,2.8-6.1,2.8
		c-2.1,0-4.2-1-6.1-2.9l-8.7-8.7c-0.4-0.4-0.8-0.6-1-0.5c-0.1,0.1-0.2,0.2-0.5,0.5c-0.7,0.6-1.6,0.4-2.7-0.7c-0.6-0.6-1-1.3-1.1-2
		c-0.1-0.7,0.1-1.3,0.6-1.8c0.2-0.2,0.6-0.6,1.2-1c0.6-0.4,1-0.8,1.2-1c0.4-0.4,0.7-0.8,1-1.2c0.4-0.6,0.7-1,0.9-1.2
		c1-1,2.2-0.7,3.6,0.7c1,1,1.3,1.8,0.9,2.3l-0.5,0.7c-0.1,0.2,0.1,0.6,0.6,1.1l7.7,7.7c1.2,1.2,2.1,1.8,2.8,2
		c0.7,0.2,1.4-0.1,2.1-0.8c0.8-0.8,1-1.5,0.8-2.2c-0.2-0.7-0.9-1.7-2.2-3l-7.6-7.6c-0.4-0.4-0.7-0.6-0.9-0.5l-0.7,0.4
		c-0.5,0.3-1.3,0-2.1-0.9c-1.5-1.5-1.7-2.7-0.8-3.7c0.2-0.2,0.7-0.6,1.2-1c0.6-0.4,1-0.8,1.2-1c0.4-0.4,0.8-0.9,1.4-1.6
		c0.2-0.3,0.4-0.6,0.6-0.7c0.4-0.4,1-0.6,1.6-0.5c0.7,0.1,1.3,0.4,1.9,1c1.1,1.1,1.4,2,0.9,2.7l-0.5,0.8L44.9,193.3z" />
    <path class="st1" d="M61.2,190.4c-0.1,0.1-0.3,0.3-0.5,0.7l3.6,3.6c0.3,0.3,0.6,0.4,0.9,0.2l0.1-0.1l0.6-0.6
		c0.3-0.3,0.8-0.5,1.4-0.4c0.6,0.1,1.2,0.4,1.7,0.9c0.6,0.6,0.9,1.2,0.9,1.9c0,0.7-0.2,1.3-0.7,1.8c-0.3,0.3-0.7,0.7-1.3,1.2
		c-0.6,0.5-1,0.9-1.3,1.2c-0.3,0.3-0.7,0.7-1.2,1.3c-0.5,0.6-0.9,1.1-1.1,1.3c-0.5,0.5-1.2,0.8-1.9,0.7c-0.7-0.1-1.4-0.4-2-1
		c-0.5-0.5-0.8-1-0.9-1.6c-0.1-0.6,0-1,0.3-1.3c0,0,0.1-0.1,0.1-0.1c0.1-0.1,0.1-0.1,0.2-0.2c0,0,0.1-0.1,0.2-0.2
		c0.3-0.3,0.2-0.6-0.1-0.9l-10.3-10.3c-0.3-0.3-0.6-0.4-0.9-0.1c-0.1,0.1-0.1,0.1-0.3,0.3c-0.1,0.1-0.2,0.2-0.3,0.3
		c-0.3,0.3-0.8,0.4-1.3,0.3s-1.1-0.4-1.6-0.9c-0.6-0.6-0.9-1.3-1-2c-0.1-0.8,0.1-1.4,0.6-1.9l0.1-0.1l1.9-1.6
		c0.2-0.2,0.4-0.3,0.5-0.4c0.7-0.7,1.8-1.8,3.3-3.5c0.8-0.8,1.4-1.5,1.8-2c1.4-1.4,2.9-2,4.5-1.9c1.7,0.1,3.2,0.9,4.8,2.4
		c1.1,1.1,1.8,2.2,2,3.3c0.2,1.1,0,2.3-0.7,3.7c2.2-1.5,4.2-1.3,6,0.5l2.4,2.4c0.4,0.4,0.7,0.4,0.9,0.2c0.1-0.1,0.2-0.2,0.3-0.3
		c0.1-0.1,0.2-0.2,0.3-0.3c0.8-0.8,1.8-0.6,2.9,0.6c0.6,0.6,0.9,1.2,1,1.9c0.1,0.7-0.2,1.2-0.6,1.7l-2.8,2.8
		c-1.2,1.2-2.8,0.9-4.6-0.9l-2.4-2.4C64.6,188.9,62.9,188.8,61.2,190.4z M54.5,184.9l2.9,2.9c0.2-0.2,0.4-0.4,0.7-0.6
		c1.7-1.7,1.8-3.3,0.3-4.8c-0.5-0.5-1.2-0.8-2-0.8c-0.8,0-1.4,0.3-2,0.9C53.6,183.3,53.7,184.1,54.5,184.9z" />
    <path class="st1" d="M86.2,182.2c-2.2,2.2-4.7,3-7.7,2.5c-3-0.5-6-2.3-9.1-5.4c-3.1-3.1-5-6.2-5.5-9.2c-0.5-3,0.3-5.6,2.5-7.8
		c2.2-2.2,4.7-3,7.7-2.5c3,0.5,6,2.2,9,5.3c4.3,4.3,6.1,8.3,5.5,12.2C88.4,179.2,87.6,180.8,86.2,182.2z M70.2,166.1
		c-1.7,1.7-0.7,4.6,3.1,8.6l0.6,0.6c1.8,1.8,3.4,2.9,4.9,3.5c1.5,0.5,2.7,0.4,3.5-0.4c0.5-0.5,0.8-1.1,0.8-1.9
		c0-0.8-0.1-1.6-0.6-2.4c-0.7-1.4-2-3-3.8-4.8c-1.8-1.8-3.4-3-4.7-3.6C72.5,165,71.2,165.1,70.2,166.1z" />
    <path class="st1" d="M94.5,159.8c-0.1,0.1-0.3,0.3-0.6,0.6l1.8,1.8l0.5,0.4c0.4,0.4,0.7,0.4,1,0.1c0.2-0.2,0.3-0.3,0.4-0.4
		c0.2-0.3,0.3-0.5,0.5-0.6c0.9-0.9,2-0.8,3.1,0.3c0.6,0.6,1,1.3,1,2s-0.2,1.3-0.7,1.8c-0.3,0.3-0.7,0.6-1.3,1.1
		c-0.6,0.5-1,0.9-1.3,1.2c-0.3,0.3-0.8,0.9-1.5,1.6c-0.6,0.8-1.1,1.3-1.5,1.6c-0.5,0.5-1.2,0.8-1.9,0.7s-1.4-0.4-2.1-1
		c-0.5-0.5-0.8-1-0.9-1.6c-0.1-0.6,0-1,0.3-1.3c0,0,0.1-0.1,0.1-0.1c0.1-0.1,0.1-0.1,0.2-0.2c0,0,0.1-0.1,0.2-0.2
		c0.3-0.3,0.2-0.6-0.1-0.9l-10.2-10.2c-0.3-0.3-0.6-0.4-0.9-0.1c-0.1,0.1-0.1,0.1-0.3,0.3c-0.1,0.1-0.2,0.2-0.3,0.3
		c-0.3,0.3-0.8,0.4-1.3,0.3s-1.1-0.4-1.6-0.9c-0.6-0.6-1-1.3-1-2.1c-0.1-0.7,0.2-1.4,0.7-1.9c0.4-0.4,1-1,1.9-1.7
		c0.8-0.7,1.5-1.3,1.9-1.7c0.4-0.4,0.9-1,1.7-1.9c0.7-0.8,1.3-1.5,1.7-1.9c1.5-1.5,3.3-2.1,5.3-1.9c2,0.2,4,1.2,5.8,3
		c2.3,2.3,3.3,4.6,3.1,7c-0.1,1.2-0.5,2.4-1.3,3.5C96.6,157.6,95.8,158.5,94.5,159.8z M86.8,153.2l3.6,3.6c0.3-0.2,0.5-0.4,0.8-0.7
		c1.6-1.6,1.6-3.3-0.1-4.9c-0.8-0.8-1.6-1.3-2.5-1.4c-0.8-0.1-1.6,0.2-2.2,0.8c-0.5,0.5-0.6,0.9-0.6,1.2
		C85.9,152.2,86.2,152.7,86.8,153.2z" />
    <path class="st1" d="M113.8,145.3l-2-1.4l-3.7,3.7l1.2,1.7c0.3,0.4,0.4,0.6,0.4,0.5c0.2,0.2,0.4,0.2,0.6,0c0.1-0.1,0.1-0.1,0.1-0.1
		c0,0,0.1-0.1,0.2-0.2c0.1-0.1,0.1-0.1,0.1-0.1c0.3-0.3,0.7-0.3,1.2-0.2c0.5,0.2,1,0.5,1.5,0.9c0.5,0.5,0.8,1.2,0.9,1.9
		c0,0.7-0.2,1.3-0.7,1.8c-0.3,0.3-0.7,0.6-1.3,1.1c-0.6,0.5-1,0.9-1.3,1.1c-0.4,0.4-0.8,0.8-1.2,1.3c-0.4,0.5-0.7,0.9-0.9,1.1
		c-0.5,0.5-1.1,0.8-1.8,0.7s-1.4-0.3-1.9-0.9c-0.5-0.5-0.8-1-0.9-1.6s0-1,0.3-1.3c0.1-0.1,0.2-0.2,0.3-0.3c0.2-0.2,0.3-0.3,0.3-0.3
		c0.2-0.2,0.1-0.6-0.3-1.3l-9.8-17.1c-0.5-0.9-0.4-1.7,0.5-2.5l1.4-1.4l1.4-1.4c0.8-0.7,1.6-0.9,2.4-0.4l17,9.9
		c0.6,0.4,1,0.5,1.2,0.3c0.1-0.1,0.2-0.2,0.3-0.3c0.1-0.1,0.2-0.2,0.3-0.3c0.8-0.8,1.7-0.6,2.8,0.5c0.6,0.6,1,1.3,1,2
		c0,0.7-0.2,1.4-0.8,1.9c-0.3,0.3-0.7,0.6-1.2,1.1c-0.6,0.4-1,0.8-1.2,1.1c-0.3,0.3-0.6,0.7-1.1,1.3c-0.5,0.6-0.8,1-1.1,1.3
		c-1.2,1.2-2.4,1.1-3.8-0.3c-1.1-1.1-1.3-1.9-0.7-2.5l0.4-0.4c0.3-0.3,0.3-0.5,0-0.8C113.9,145.4,113.8,145.4,113.8,145.3z
		 M105.3,143.5l2.4-2.4l-7.3-4.9L105.3,143.5z" />
    <path class="st1" d="M132.3,122.1c-0.1,0.1-0.3,0.3-0.6,0.6l1.8,1.8l0.5,0.4c0.4,0.4,0.7,0.4,1,0.1c0.2-0.2,0.3-0.3,0.4-0.4
		c0.2-0.3,0.3-0.5,0.5-0.6c0.9-0.9,2-0.8,3.1,0.3c0.6,0.6,1,1.3,1,2c0.1,0.7-0.2,1.3-0.7,1.8c-0.3,0.3-0.7,0.6-1.3,1.1
		s-1,0.9-1.3,1.2c-0.3,0.3-0.8,0.9-1.5,1.6c-0.6,0.8-1.1,1.3-1.5,1.6c-0.5,0.5-1.2,0.8-1.9,0.7s-1.4-0.4-2.1-1
		c-0.5-0.5-0.8-1-0.9-1.6c-0.1-0.6,0-1,0.3-1.3c0,0,0.1-0.1,0.1-0.1c0.1-0.1,0.1-0.1,0.2-0.2c0,0,0.1-0.1,0.2-0.2
		c0.3-0.3,0.2-0.6-0.1-0.9l-10.2-10.2c-0.3-0.3-0.6-0.4-0.9-0.1c-0.1,0.1-0.1,0.1-0.3,0.3s-0.2,0.2-0.3,0.3
		c-0.3,0.3-0.8,0.4-1.3,0.3c-0.6-0.1-1.1-0.4-1.6-0.9c-0.6-0.6-1-1.3-1-2.1c-0.1-0.7,0.2-1.4,0.7-1.9c0.4-0.4,1-1,1.9-1.7
		c0.8-0.7,1.5-1.3,1.9-1.7c0.4-0.4,0.9-1,1.7-1.9c0.7-0.8,1.3-1.5,1.7-1.9c1.5-1.5,3.3-2.1,5.3-1.9c2,0.2,4,1.2,5.8,3
		c2.3,2.3,3.3,4.6,3.1,7c-0.1,1.2-0.5,2.4-1.3,3.5C134.3,119.9,133.5,120.8,132.3,122.1z M124.5,115.5l3.6,3.6
		c0.3-0.2,0.5-0.4,0.8-0.7c1.6-1.6,1.6-3.3-0.1-4.9c-0.8-0.8-1.6-1.3-2.5-1.4c-0.8-0.1-1.6,0.2-2.2,0.8c-0.5,0.5-0.6,0.9-0.6,1.2
		C123.7,114.5,124,114.9,124.5,115.5z" />
    <path class="st1" d="M145.8,105.9c-0.1,0.1-0.3,0.3-0.5,0.7l3.6,3.6c0.3,0.3,0.6,0.4,0.9,0.2l0.1-0.1l0.6-0.6
		c0.3-0.3,0.8-0.5,1.4-0.4c0.6,0.1,1.2,0.4,1.7,0.9c0.6,0.6,0.9,1.2,0.9,1.9c0,0.7-0.2,1.3-0.7,1.8c-0.3,0.3-0.7,0.7-1.3,1.2
		s-1,0.9-1.3,1.2c-0.3,0.3-0.7,0.7-1.2,1.3c-0.5,0.6-0.9,1.1-1.1,1.3c-0.5,0.5-1.2,0.8-1.9,0.7c-0.7-0.1-1.4-0.4-2-1
		c-0.5-0.5-0.8-1-0.9-1.6c-0.1-0.6,0-1,0.3-1.3c0,0,0.1-0.1,0.1-0.1s0.1-0.1,0.2-0.2c0,0,0.1-0.1,0.2-0.2c0.3-0.3,0.2-0.6-0.1-0.9
		L134.2,104c-0.3-0.3-0.6-0.4-0.9-0.1c-0.1,0.1-0.1,0.1-0.3,0.3c-0.1,0.1-0.2,0.2-0.3,0.3c-0.3,0.3-0.8,0.4-1.3,0.3
		c-0.6-0.1-1.1-0.4-1.6-0.9c-0.6-0.6-0.9-1.3-1-2c-0.1-0.8,0.1-1.4,0.6-1.9l0.1-0.1l1.9-1.6c0.2-0.2,0.4-0.3,0.5-0.4
		c0.7-0.7,1.8-1.8,3.3-3.5c0.8-0.8,1.4-1.5,1.8-2c1.4-1.4,2.9-2,4.5-1.9c1.7,0.1,3.2,0.9,4.8,2.4c1.1,1.1,1.8,2.2,2,3.3
		c0.2,1.1,0,2.3-0.7,3.7c2.2-1.5,4.2-1.3,6,0.5l2.4,2.4c0.4,0.4,0.7,0.4,0.9,0.2c0.1-0.1,0.2-0.2,0.3-0.3c0.1-0.1,0.2-0.2,0.3-0.3
		c0.8-0.8,1.8-0.6,2.9,0.6c0.6,0.6,0.9,1.2,1,1.9c0.1,0.7-0.2,1.2-0.6,1.7l-2.8,2.8c-1.2,1.2-2.8,0.9-4.6-0.9l-2.4-2.4
		C149.1,104.4,147.4,104.3,145.8,105.9z M139,100.4l2.9,2.9c0.2-0.2,0.4-0.4,0.7-0.6c1.7-1.7,1.8-3.3,0.3-4.8
		c-0.5-0.5-1.2-0.8-2-0.8s-1.4,0.3-2,0.9C138.1,98.8,138.2,99.6,139,100.4z" />
    <path class="st1" d="M170.7,97.7c-2.2,2.2-4.7,3-7.7,2.5s-6-2.3-9.1-5.4c-3.1-3.1-5-6.2-5.5-9.2c-0.5-3,0.3-5.6,2.5-7.8
		c2.2-2.2,4.7-3,7.7-2.5c3,0.5,6,2.2,9,5.3c4.3,4.3,6.1,8.3,5.5,12.2C172.9,94.6,172.1,96.3,170.7,97.7z M154.7,81.6
		c-1.7,1.7-0.7,4.6,3.1,8.6l0.6,0.6c1.8,1.8,3.4,2.9,4.9,3.5c1.5,0.5,2.7,0.4,3.5-0.4c0.5-0.5,0.8-1.1,0.8-1.9
		c0-0.8-0.1-1.6-0.6-2.4c-0.7-1.4-2-3-3.8-4.8c-1.8-1.8-3.4-3-4.7-3.6C157,80.5,155.7,80.6,154.7,81.6z" />
    <path class="st1" d="M178.5,79.3c-0.5,0.5-1.2,0.6-2.2,0.3c0.2,0.3,0.3,0.5,0.5,0.6c0.5,0.5,1.1,0.7,1.9,0.7c0.8,0,1.4-0.3,2-0.9
		c1.5-1.5,1.2-3.3-1-5.5l-7.5-7.5c-0.5-0.5-0.8-0.7-1-0.8c-0.2-0.1-0.4,0-0.6,0.2l-0.1,0.1c-0.3,0.3-0.4,0.5-0.4,0.5
		c-0.3,0.3-0.8,0.5-1.4,0.3c-0.6-0.1-1.1-0.4-1.6-1c-0.6-0.6-1-1.3-1.1-2c-0.1-0.7,0.2-1.3,0.7-1.9c0.2-0.2,0.6-0.6,1.2-1
		c0.6-0.4,1-0.8,1.2-1c0.6-0.6,1.1-1.2,1.4-1.6c0.4-0.6,0.8-1,1.1-1.3c1-1,2.2-0.8,3.6,0.5c1.2,1.2,1.4,2.1,0.7,2.9h-0.1
		c-0.4,0.4-0.2,0.9,0.5,1.6l8,8c2,2,3.1,4.2,3.1,6.6c0.1,2.4-0.8,4.5-2.7,6.4c-1.8,1.8-3.7,2.6-5.9,2.6c-2.2,0-4.1-0.9-6-2.8
		c-1.4-1.4-2.2-3-2.4-4.6c-0.2-1.6,0.3-3,1.5-4.2c0.8-0.8,1.7-1.2,2.8-1.1c1.1,0,2.1,0.5,2.9,1.4c0.7,0.7,1.2,1.5,1.3,2.3
		C179.2,78.1,179,78.8,178.5,79.3z" />
    <path class="st1" d="M185.4,53.8l2.9,2.9c0.2-0.1,0.4-0.2,0.6-0.4c0.5-0.5,0.5-1,0-1.5c-0.2-0.2-0.4-0.3-0.5-0.4
		c-0.4-0.2-0.6-0.4-0.7-0.5c-0.3-0.3-0.4-0.7-0.4-1.1c0-0.5,0.2-0.9,0.5-1.2c0.9-0.9,1.7-0.9,2.6,0c0.4,0.4,0.8,0.9,1.4,1.7
		c0.2,0.3,0.6,0.7,1.2,1.3c0.6,0.6,1.3,1.3,2.1,1.9c0.6,0.5,1.1,0.9,1.4,1.2c0.9,0.9,1,1.9,0.1,2.8c-0.8,0.8-1.5,0.8-2.2,0
		c-0.2-0.2-0.4-0.4-0.6-0.7c-0.1-0.1-0.2-0.3-0.4-0.5c-0.4-0.4-1-0.3-1.6,0.3c0,0-0.1,0.2-0.3,0.4l3.4,3.4c0.6,0.6,1,0.8,1.4,0.6
		c0.2-0.1,0.5-0.3,0.8-0.6l2.3-2.3c0.5-0.5,0.8-0.9,0.8-1.3c0.1-0.3-0.1-0.7-0.6-1.2c-0.2-0.2-0.7-0.6-1.2-1
		c-0.7-0.5-1.2-0.9-1.5-1.2c-0.5-0.5-0.7-1.1-0.8-1.7c0-0.6,0.2-1.2,0.7-1.7c1.1-1.1,2.4-0.9,3.9,0.6c0.4,0.4,0.7,0.8,1.1,1.2
		c0.5,0.7,1.1,1.2,1.6,1.8c0.3,0.3,0.7,0.7,1.4,1.2c0.6,0.5,1.1,0.9,1.4,1.2c0.5,0.5,0.7,1,0.7,1.4c-0.1,0.4-0.4,0.9-1,1.5
		c-0.3,0.3-0.6,0.6-0.9,0.9c-2,1.7-3.7,3.4-5.3,4.9c-0.5,0.5-1.2,1.3-2.2,2.4c-1,1.1-1.7,1.9-2.2,2.4c-0.5,0.5-1.2,0.8-1.9,0.8
		c-0.7,0-1.4-0.4-2.1-1c-0.5-0.5-0.8-1-0.9-1.6c-0.1-0.6,0-1,0.3-1.3c0,0,0.1-0.1,0.1-0.1s0.1-0.1,0.2-0.2c0,0,0.1-0.1,0.2-0.2
		c0.3-0.3,0.2-0.6-0.1-0.9l-10.3-10.3c-0.4-0.4-0.7-0.4-0.9-0.1c0,0-0.1,0.1-0.1,0.1c0,0.1,0,0.1-0.1,0.1c-0.1,0.2-0.2,0.3-0.3,0.4
		c-0.3,0.3-0.7,0.4-1.3,0.3c-0.6-0.1-1.1-0.4-1.6-0.9c-0.6-0.6-1-1.3-1-2.1c-0.1-0.8,0.2-1.4,0.7-1.9c0.4-0.4,1.2-1.1,2.4-2.2
		c0.9-0.8,1.8-1.7,2.8-2.6c0.6-0.6,1.5-1.6,2.7-2.9c1.2-1.3,2-2.2,2.7-2.9c1-1,1.9-1.1,2.8-0.2c0.2,0.2,0.6,0.7,1.3,1.4
		c0.4,0.5,1.2,1.3,2.4,2.5l0.6,0.6l1.4,1.2c1.2,1.2,1.2,2.3,0,3.5c-1.1,1.1-2.1,1.1-3.1,0.1c-0.3-0.3-0.7-0.7-1.1-1.3
		c-0.5-0.6-0.8-1-1.1-1.3c-0.5-0.5-0.9-0.7-1.2-0.7c-0.3,0-0.7,0.3-1.1,0.7l-2,2c-0.6,0.6-0.9,1-0.9,1.3
		C184.5,52.8,184.8,53.2,185.4,53.8z" />
    <path class="st1" d="M196.6,32.1c1.1-1.1,2.7-1.8,4.6-1.9c-0.5-1-0.4-1.9,0.3-2.6c1.1-1.1,2.3-1.1,3.5,0c0.3,0.3,0.6,0.7,1.1,1.3
		c0.5,0.6,0.8,1,1.1,1.3c0.3,0.3,0.9,0.8,1.7,1.4c0.4,0.3,0.7,0.6,1,0.9c1.5,1.5,1.5,2.8,0.2,4.2c-1.2,1.2-2.4,1.2-3.6,0.1l-1.1-1.1
		c-0.6-0.5-1.3-0.8-2.1-0.8c-0.8,0-1.4,0.2-1.9,0.7c-0.9,0.9-1.2,2.1-0.7,3.6c0.5,1.5,1.6,3.1,3.3,4.8c4.2,4.2,7.2,5.4,9,3.6
		c1.2-1.2,1-2.7-0.7-4.4l-0.3-0.3c-1.5-1.5-1.7-2.9-0.4-4.2c0.7-0.7,1.5-1,2.3-0.8c0.9,0.1,1.8,0.6,2.7,1.5c1.3,1.3,2.2,2.8,2.6,4.5
		c0.4,1.7,0.3,3.3-0.3,4.8c-0.4,1-1.1,2-2.1,3c-2.2,2.2-4.8,3.1-7.7,2.6c-2.9-0.5-5.9-2.3-9-5.4c-3.2-3.2-5.1-6.2-5.7-9.2
		C193.9,36.6,194.6,34.1,196.6,32.1z" />
    <path class="st1" d="M224.3,34.4l-9.5-9.5c-0.5-0.5-0.9-0.8-1.1-1c-0.5-0.3-0.9-0.2-1.3,0.1c-0.5,0.5-0.4,1.1,0.4,1.8l0.2,0.2
		l1.1,0.9c0.2,0.2,0.4,0.4,0.7,0.6c1.6,1.6,1.8,3,0.6,4.2c-1.1,1.1-2.4,1-3.7-0.3c-0.3-0.3-0.8-0.9-1.4-1.6
		c-0.6-0.7-1.1-1.2-1.4-1.6c-0.3-0.3-0.7-0.6-1.3-1.2c-0.6-0.5-1-0.9-1.3-1.2c-1-1-1-1.9-0.1-2.9l0.1-0.1l2.8-2.6
		c1.4-1.3,2.6-2.5,3.8-3.6c1-1,1.8-1.8,2.3-2.5c0.7-0.9,1.4-1.6,2-2.2c1-1,2-0.9,3,0.1c0,0,0.1,0.2,0.4,0.4c0.2,0.3,0.5,0.6,0.8,0.9
		c0.8,0.9,1.2,1.2,1.1,1.1c0.3,0.3,0.8,0.7,1.4,1.3c0.6,0.6,1.1,1,1.4,1.3c1.5,1.5,1.8,2.9,0.7,4c-1.2,1.2-2.6,1-4.1-0.5
		c-0.5-0.5-0.8-0.9-1.1-1.2l-0.9-1.1c-0.6-0.6-1.1-0.6-1.6-0.2c-0.5,0.5-0.3,1.2,0.7,2.2l9.6,9.6c0.4,0.4,0.8,0.5,1,0.3
		c0.1-0.1,0.2-0.3,0.4-0.5s0.3-0.4,0.4-0.5c0.9-0.9,2-0.8,3.2,0.5c0.6,0.6,1,1.3,1,2c0.1,0.7-0.2,1.3-0.7,1.9
		c-0.3,0.3-0.8,0.8-1.5,1.4s-1.2,1.1-1.5,1.4c-0.3,0.3-0.8,0.9-1.4,1.6c-0.6,0.7-1.1,1.2-1.4,1.6c-0.5,0.5-1.1,0.7-1.8,0.7
		c-0.7-0.1-1.4-0.4-2-1c-1.2-1.2-1.4-2.3-0.4-3.2c0.1-0.1,0.3-0.2,0.5-0.3c0.2-0.1,0.4-0.2,0.5-0.3
		C224.8,35.2,224.7,34.8,224.3,34.4z" />
  </g>
</svg>
